<mxfile host="app.diagrams.net" modified="2022-03-07T21:52:43.795Z" agent="5.0 (Windows)" etag="QYbayDCb2VHudlY4Euem" version="16.6.7" type="github">
  <diagram id="_XvX1ry2SoD3X9N9kPX3" name="Page-1">
    <mxGraphModel dx="3478" dy="2215" grid="1" gridSize="10" guides="1" tooltips="1" connect="1" arrows="1" fold="1" page="1" pageScale="1" pageWidth="850" pageHeight="1100" math="0" shadow="0">
      <root>
        <mxCell id="0" />
        <mxCell id="1" parent="0" />
        <mxCell id="fxee2EC096Nbxwn1T24N-57" value="" style="edgeStyle=orthogonalEdgeStyle;rounded=0;orthogonalLoop=1;jettySize=auto;html=1;endArrow=none;endFill=0;" parent="1" source="fxee2EC096Nbxwn1T24N-11" target="fxee2EC096Nbxwn1T24N-56" edge="1">
          <mxGeometry relative="1" as="geometry" />
        </mxCell>
        <mxCell id="fxee2EC096Nbxwn1T24N-112" style="edgeStyle=orthogonalEdgeStyle;rounded=0;sketch=0;orthogonalLoop=1;jettySize=auto;html=1;endArrow=none;endFill=0;" parent="1" source="fxee2EC096Nbxwn1T24N-11" target="fxee2EC096Nbxwn1T24N-111" edge="1">
          <mxGeometry relative="1" as="geometry" />
        </mxCell>
        <mxCell id="fxee2EC096Nbxwn1T24N-115" style="edgeStyle=orthogonalEdgeStyle;rounded=0;sketch=0;orthogonalLoop=1;jettySize=auto;html=1;endArrow=none;endFill=0;exitX=0.25;exitY=0;exitDx=0;exitDy=0;" parent="1" source="fxee2EC096Nbxwn1T24N-11" target="fxee2EC096Nbxwn1T24N-113" edge="1">
          <mxGeometry relative="1" as="geometry" />
        </mxCell>
        <mxCell id="fxee2EC096Nbxwn1T24N-117" style="edgeStyle=orthogonalEdgeStyle;rounded=0;sketch=0;orthogonalLoop=1;jettySize=auto;html=1;endArrow=none;endFill=0;exitX=0.5;exitY=0;exitDx=0;exitDy=0;" parent="1" source="fxee2EC096Nbxwn1T24N-11" target="fxee2EC096Nbxwn1T24N-116" edge="1">
          <mxGeometry relative="1" as="geometry" />
        </mxCell>
        <mxCell id="fxee2EC096Nbxwn1T24N-120" style="edgeStyle=orthogonalEdgeStyle;rounded=0;sketch=0;orthogonalLoop=1;jettySize=auto;html=1;endArrow=none;endFill=0;exitX=0.75;exitY=0;exitDx=0;exitDy=0;" parent="1" source="fxee2EC096Nbxwn1T24N-11" target="fxee2EC096Nbxwn1T24N-119" edge="1">
          <mxGeometry relative="1" as="geometry">
            <Array as="points">
              <mxPoint x="-415" y="-20" />
              <mxPoint x="-260" y="-20" />
            </Array>
          </mxGeometry>
        </mxCell>
        <mxCell id="fxee2EC096Nbxwn1T24N-11" value="&lt;div&gt;Person&lt;/div&gt;" style="whiteSpace=wrap;html=1;align=center;" parent="1" vertex="1">
          <mxGeometry x="-490" width="100" height="40" as="geometry" />
        </mxCell>
        <mxCell id="fxee2EC096Nbxwn1T24N-130" value="" style="edgeStyle=orthogonalEdgeStyle;rounded=0;sketch=0;orthogonalLoop=1;jettySize=auto;html=1;endArrow=none;endFill=0;" parent="1" source="fxee2EC096Nbxwn1T24N-12" target="fxee2EC096Nbxwn1T24N-129" edge="1">
          <mxGeometry relative="1" as="geometry" />
        </mxCell>
        <mxCell id="fxee2EC096Nbxwn1T24N-133" value="" style="edgeStyle=orthogonalEdgeStyle;rounded=0;sketch=0;orthogonalLoop=1;jettySize=auto;html=1;endArrow=none;endFill=0;" parent="1" source="fxee2EC096Nbxwn1T24N-12" target="fxee2EC096Nbxwn1T24N-132" edge="1">
          <mxGeometry relative="1" as="geometry" />
        </mxCell>
        <mxCell id="fxee2EC096Nbxwn1T24N-12" value="&lt;div&gt;Login&lt;/div&gt;" style="whiteSpace=wrap;html=1;align=center;" parent="1" vertex="1">
          <mxGeometry x="-120" y="30" width="100" height="40" as="geometry" />
        </mxCell>
        <mxCell id="fxee2EC096Nbxwn1T24N-95" value="" style="edgeStyle=orthogonalEdgeStyle;rounded=0;sketch=0;orthogonalLoop=1;jettySize=auto;html=1;endArrow=none;endFill=0;" parent="1" source="fxee2EC096Nbxwn1T24N-13" target="fxee2EC096Nbxwn1T24N-94" edge="1">
          <mxGeometry relative="1" as="geometry" />
        </mxCell>
        <mxCell id="fxee2EC096Nbxwn1T24N-101" value="" style="edgeStyle=orthogonalEdgeStyle;rounded=0;sketch=0;orthogonalLoop=1;jettySize=auto;html=1;endArrow=none;endFill=0;" parent="1" source="fxee2EC096Nbxwn1T24N-13" target="fxee2EC096Nbxwn1T24N-100" edge="1">
          <mxGeometry relative="1" as="geometry" />
        </mxCell>
        <mxCell id="fxee2EC096Nbxwn1T24N-13" value="Account" style="whiteSpace=wrap;html=1;align=center;" parent="1" vertex="1">
          <mxGeometry x="-1180" y="290" width="100" height="40" as="geometry" />
        </mxCell>
        <mxCell id="fxee2EC096Nbxwn1T24N-14" value="&lt;div&gt;Bank&lt;/div&gt;" style="whiteSpace=wrap;html=1;align=center;" parent="1" vertex="1">
          <mxGeometry x="340" y="400" width="100" height="40" as="geometry" />
        </mxCell>
        <mxCell id="fxee2EC096Nbxwn1T24N-76" value="" style="edgeStyle=orthogonalEdgeStyle;rounded=0;sketch=0;orthogonalLoop=1;jettySize=auto;html=1;endArrow=none;endFill=0;" parent="1" source="fxee2EC096Nbxwn1T24N-16" target="fxee2EC096Nbxwn1T24N-75" edge="1">
          <mxGeometry relative="1" as="geometry" />
        </mxCell>
        <mxCell id="fxee2EC096Nbxwn1T24N-16" value="Branch" style="whiteSpace=wrap;html=1;align=center;" parent="1" vertex="1">
          <mxGeometry x="180" y="280" width="100" height="40" as="geometry" />
        </mxCell>
        <mxCell id="WLDFdkbROoyTzkpZu12v-15" style="edgeStyle=orthogonalEdgeStyle;rounded=0;orthogonalLoop=1;jettySize=auto;html=1;entryX=0.5;entryY=0;entryDx=0;entryDy=0;endArrow=none;endFill=0;" edge="1" parent="1" source="fxee2EC096Nbxwn1T24N-17" target="WLDFdkbROoyTzkpZu12v-14">
          <mxGeometry relative="1" as="geometry" />
        </mxCell>
        <mxCell id="fxee2EC096Nbxwn1T24N-17" value="Support" style="whiteSpace=wrap;html=1;align=center;" parent="1" vertex="1">
          <mxGeometry x="-490" y="510" width="100" height="40" as="geometry" />
        </mxCell>
        <mxCell id="fxee2EC096Nbxwn1T24N-18" value="Loan" style="whiteSpace=wrap;html=1;align=center;" parent="1" vertex="1">
          <mxGeometry x="-750" y="540" width="100" height="40" as="geometry" />
        </mxCell>
        <mxCell id="fxee2EC096Nbxwn1T24N-72" value="" style="edgeStyle=orthogonalEdgeStyle;rounded=0;sketch=0;orthogonalLoop=1;jettySize=auto;html=1;endArrow=none;endFill=0;" parent="1" source="fxee2EC096Nbxwn1T24N-26" target="fxee2EC096Nbxwn1T24N-71" edge="1">
          <mxGeometry relative="1" as="geometry" />
        </mxCell>
        <mxCell id="fxee2EC096Nbxwn1T24N-80" style="edgeStyle=orthogonalEdgeStyle;rounded=0;sketch=0;orthogonalLoop=1;jettySize=auto;html=1;endArrow=none;endFill=0;entryX=1;entryY=0.5;entryDx=0;entryDy=0;" parent="1" source="fxee2EC096Nbxwn1T24N-26" target="fxee2EC096Nbxwn1T24N-78" edge="1">
          <mxGeometry relative="1" as="geometry" />
        </mxCell>
        <mxCell id="fxee2EC096Nbxwn1T24N-135" value="" style="edgeStyle=orthogonalEdgeStyle;rounded=0;sketch=0;orthogonalLoop=1;jettySize=auto;html=1;endArrow=none;endFill=0;exitX=0.75;exitY=0;exitDx=0;exitDy=0;" parent="1" source="fxee2EC096Nbxwn1T24N-26" target="fxee2EC096Nbxwn1T24N-134" edge="1">
          <mxGeometry relative="1" as="geometry" />
        </mxCell>
        <mxCell id="fxee2EC096Nbxwn1T24N-26" value="&lt;div&gt;Employee&lt;/div&gt;" style="whiteSpace=wrap;html=1;align=center;" parent="1" vertex="1">
          <mxGeometry x="-410" y="280" width="100" height="40" as="geometry" />
        </mxCell>
        <mxCell id="fxee2EC096Nbxwn1T24N-79" value="" style="edgeStyle=orthogonalEdgeStyle;rounded=0;sketch=0;orthogonalLoop=1;jettySize=auto;html=1;endArrow=none;endFill=0;entryX=0;entryY=0.5;entryDx=0;entryDy=0;" parent="1" source="fxee2EC096Nbxwn1T24N-27" target="fxee2EC096Nbxwn1T24N-78" edge="1">
          <mxGeometry relative="1" as="geometry" />
        </mxCell>
        <mxCell id="fxee2EC096Nbxwn1T24N-83" value="" style="edgeStyle=orthogonalEdgeStyle;rounded=0;sketch=0;orthogonalLoop=1;jettySize=auto;html=1;endArrow=none;endFill=0;" parent="1" source="fxee2EC096Nbxwn1T24N-27" target="fxee2EC096Nbxwn1T24N-82" edge="1">
          <mxGeometry relative="1" as="geometry" />
        </mxCell>
        <mxCell id="fxee2EC096Nbxwn1T24N-98" value="" style="edgeStyle=orthogonalEdgeStyle;rounded=0;sketch=0;orthogonalLoop=1;jettySize=auto;html=1;endArrow=none;endFill=0;exitX=0.25;exitY=1;exitDx=0;exitDy=0;" parent="1" source="fxee2EC096Nbxwn1T24N-27" target="fxee2EC096Nbxwn1T24N-97" edge="1">
          <mxGeometry relative="1" as="geometry" />
        </mxCell>
        <mxCell id="fxee2EC096Nbxwn1T24N-27" value="Customer" style="whiteSpace=wrap;html=1;align=center;" parent="1" vertex="1">
          <mxGeometry x="-570" y="280" width="100" height="40" as="geometry" />
        </mxCell>
        <mxCell id="fxee2EC096Nbxwn1T24N-28" value="" style="endArrow=none;html=1;rounded=0;entryX=0.5;entryY=1;entryDx=0;entryDy=0;" parent="1" target="fxee2EC096Nbxwn1T24N-11" edge="1">
          <mxGeometry relative="1" as="geometry">
            <mxPoint x="-440" y="240" as="sourcePoint" />
            <mxPoint x="-440" y="230" as="targetPoint" />
          </mxGeometry>
        </mxCell>
        <mxCell id="fxee2EC096Nbxwn1T24N-31" value="" style="endArrow=none;html=1;rounded=0;entryX=0.5;entryY=0;entryDx=0;entryDy=0;" parent="1" target="fxee2EC096Nbxwn1T24N-26" edge="1">
          <mxGeometry relative="1" as="geometry">
            <mxPoint x="-440" y="240" as="sourcePoint" />
            <mxPoint x="-360" y="240" as="targetPoint" />
            <Array as="points">
              <mxPoint x="-360" y="240" />
            </Array>
          </mxGeometry>
        </mxCell>
        <mxCell id="fxee2EC096Nbxwn1T24N-32" value="" style="endArrow=none;html=1;rounded=0;entryX=0.5;entryY=0;entryDx=0;entryDy=0;" parent="1" edge="1">
          <mxGeometry relative="1" as="geometry">
            <mxPoint x="-440" y="240" as="sourcePoint" />
            <mxPoint x="-520" y="280" as="targetPoint" />
            <Array as="points">
              <mxPoint x="-520" y="240" />
            </Array>
          </mxGeometry>
        </mxCell>
        <mxCell id="fxee2EC096Nbxwn1T24N-58" style="edgeStyle=orthogonalEdgeStyle;rounded=0;orthogonalLoop=1;jettySize=auto;html=1;endArrow=none;endFill=0;sketch=0;" parent="1" source="fxee2EC096Nbxwn1T24N-56" target="fxee2EC096Nbxwn1T24N-12" edge="1">
          <mxGeometry relative="1" as="geometry" />
        </mxCell>
        <mxCell id="fxee2EC096Nbxwn1T24N-56" value="&lt;div&gt;Credentials&lt;/div&gt;" style="rhombus;whiteSpace=wrap;html=1;" parent="1" vertex="1">
          <mxGeometry x="-300" y="20" width="80" height="80" as="geometry" />
        </mxCell>
        <mxCell id="fxee2EC096Nbxwn1T24N-73" style="edgeStyle=orthogonalEdgeStyle;rounded=0;sketch=0;orthogonalLoop=1;jettySize=auto;html=1;endArrow=none;endFill=0;" parent="1" source="fxee2EC096Nbxwn1T24N-71" target="fxee2EC096Nbxwn1T24N-16" edge="1">
          <mxGeometry relative="1" as="geometry" />
        </mxCell>
        <mxCell id="fxee2EC096Nbxwn1T24N-71" value="&lt;div&gt;Work at&lt;/div&gt;" style="rhombus;whiteSpace=wrap;html=1;" parent="1" vertex="1">
          <mxGeometry x="30" y="260" width="80" height="80" as="geometry" />
        </mxCell>
        <mxCell id="fxee2EC096Nbxwn1T24N-77" style="edgeStyle=orthogonalEdgeStyle;rounded=0;sketch=0;orthogonalLoop=1;jettySize=auto;html=1;endArrow=none;endFill=0;" parent="1" source="fxee2EC096Nbxwn1T24N-75" target="fxee2EC096Nbxwn1T24N-14" edge="1">
          <mxGeometry relative="1" as="geometry" />
        </mxCell>
        <mxCell id="fxee2EC096Nbxwn1T24N-75" value="Of" style="rhombus;whiteSpace=wrap;html=1;" parent="1" vertex="1">
          <mxGeometry x="350" y="260" width="80" height="80" as="geometry" />
        </mxCell>
        <mxCell id="fxee2EC096Nbxwn1T24N-81" style="edgeStyle=orthogonalEdgeStyle;rounded=0;sketch=0;orthogonalLoop=1;jettySize=auto;html=1;endArrow=none;endFill=0;" parent="1" source="fxee2EC096Nbxwn1T24N-78" target="fxee2EC096Nbxwn1T24N-17" edge="1">
          <mxGeometry relative="1" as="geometry" />
        </mxCell>
        <mxCell id="fxee2EC096Nbxwn1T24N-78" value="Provide" style="rhombus;whiteSpace=wrap;html=1;" parent="1" vertex="1">
          <mxGeometry x="-480" y="390" width="80" height="80" as="geometry" />
        </mxCell>
        <mxCell id="fxee2EC096Nbxwn1T24N-84" style="edgeStyle=orthogonalEdgeStyle;rounded=0;sketch=0;orthogonalLoop=1;jettySize=auto;html=1;endArrow=none;endFill=0;" parent="1" source="fxee2EC096Nbxwn1T24N-82" target="fxee2EC096Nbxwn1T24N-13" edge="1">
          <mxGeometry relative="1" as="geometry" />
        </mxCell>
        <mxCell id="fxee2EC096Nbxwn1T24N-82" value="Have" style="rhombus;whiteSpace=wrap;html=1;" parent="1" vertex="1">
          <mxGeometry x="-990" y="270" width="80" height="80" as="geometry" />
        </mxCell>
        <mxCell id="fxee2EC096Nbxwn1T24N-85" value="Transaction" style="shape=ext;margin=3;double=1;whiteSpace=wrap;html=1;align=center;" parent="1" vertex="1">
          <mxGeometry x="-1360" y="420" width="100" height="40" as="geometry" />
        </mxCell>
        <mxCell id="fxee2EC096Nbxwn1T24N-96" style="edgeStyle=orthogonalEdgeStyle;rounded=0;sketch=0;orthogonalLoop=1;jettySize=auto;html=1;endArrow=none;endFill=0;" parent="1" source="fxee2EC096Nbxwn1T24N-94" target="fxee2EC096Nbxwn1T24N-85" edge="1">
          <mxGeometry relative="1" as="geometry" />
        </mxCell>
        <mxCell id="fxee2EC096Nbxwn1T24N-94" value="&lt;div&gt;Send&lt;/div&gt;" style="rhombus;whiteSpace=wrap;html=1;" parent="1" vertex="1">
          <mxGeometry x="-1350" y="270" width="80" height="80" as="geometry" />
        </mxCell>
        <mxCell id="fxee2EC096Nbxwn1T24N-99" style="edgeStyle=orthogonalEdgeStyle;rounded=0;sketch=0;orthogonalLoop=1;jettySize=auto;html=1;endArrow=none;endFill=0;" parent="1" source="fxee2EC096Nbxwn1T24N-97" target="fxee2EC096Nbxwn1T24N-18" edge="1">
          <mxGeometry relative="1" as="geometry" />
        </mxCell>
        <mxCell id="fxee2EC096Nbxwn1T24N-97" value="Take" style="rhombus;whiteSpace=wrap;html=1;" parent="1" vertex="1">
          <mxGeometry x="-740" y="420" width="80" height="80" as="geometry" />
        </mxCell>
        <mxCell id="fxee2EC096Nbxwn1T24N-103" style="edgeStyle=orthogonalEdgeStyle;rounded=0;sketch=0;orthogonalLoop=1;jettySize=auto;html=1;endArrow=none;endFill=0;" parent="1" source="fxee2EC096Nbxwn1T24N-100" target="fxee2EC096Nbxwn1T24N-102" edge="1">
          <mxGeometry relative="1" as="geometry" />
        </mxCell>
        <mxCell id="fxee2EC096Nbxwn1T24N-106" style="edgeStyle=orthogonalEdgeStyle;rounded=0;sketch=0;orthogonalLoop=1;jettySize=auto;html=1;entryX=0.5;entryY=1;entryDx=0;entryDy=0;endArrow=none;endFill=0;" parent="1" source="fxee2EC096Nbxwn1T24N-100" target="fxee2EC096Nbxwn1T24N-105" edge="1">
          <mxGeometry relative="1" as="geometry" />
        </mxCell>
        <mxCell id="fxee2EC096Nbxwn1T24N-107" style="edgeStyle=orthogonalEdgeStyle;rounded=0;sketch=0;orthogonalLoop=1;jettySize=auto;html=1;endArrow=none;endFill=0;" parent="1" source="fxee2EC096Nbxwn1T24N-100" target="fxee2EC096Nbxwn1T24N-104" edge="1">
          <mxGeometry relative="1" as="geometry" />
        </mxCell>
        <mxCell id="fxee2EC096Nbxwn1T24N-100" value="&lt;div&gt;Type&lt;/div&gt;" style="rhombus;whiteSpace=wrap;html=1;" parent="1" vertex="1">
          <mxGeometry x="-1170" y="150" width="80" height="80" as="geometry" />
        </mxCell>
        <mxCell id="fxee2EC096Nbxwn1T24N-102" value="Real" style="shape=ext;margin=3;double=1;whiteSpace=wrap;html=1;align=center;" parent="1" vertex="1">
          <mxGeometry x="-1180" y="70" width="100" height="40" as="geometry" />
        </mxCell>
        <mxCell id="fxee2EC096Nbxwn1T24N-104" value="Nominal" style="shape=ext;margin=3;double=1;whiteSpace=wrap;html=1;align=center;" parent="1" vertex="1">
          <mxGeometry x="-1070" y="70" width="100" height="40" as="geometry" />
        </mxCell>
        <mxCell id="fxee2EC096Nbxwn1T24N-105" value="Personal" style="shape=ext;margin=3;double=1;whiteSpace=wrap;html=1;align=center;" parent="1" vertex="1">
          <mxGeometry x="-1290" y="70" width="100" height="40" as="geometry" />
        </mxCell>
        <mxCell id="fxee2EC096Nbxwn1T24N-111" value="&lt;div&gt;idPerson&lt;/div&gt;" style="ellipse;whiteSpace=wrap;html=1;align=center;fontStyle=4;" parent="1" vertex="1">
          <mxGeometry x="-630" y="-90" width="100" height="40" as="geometry" />
        </mxCell>
        <mxCell id="fxee2EC096Nbxwn1T24N-113" value="name" style="ellipse;whiteSpace=wrap;html=1;align=center;" parent="1" vertex="1">
          <mxGeometry x="-525" y="-90" width="100" height="40" as="geometry" />
        </mxCell>
        <mxCell id="fxee2EC096Nbxwn1T24N-116" value="&lt;div&gt;email&lt;/div&gt;" style="ellipse;whiteSpace=wrap;html=1;align=center;" parent="1" vertex="1">
          <mxGeometry x="-420" y="-90" width="100" height="40" as="geometry" />
        </mxCell>
        <mxCell id="fxee2EC096Nbxwn1T24N-124" value="" style="edgeStyle=orthogonalEdgeStyle;rounded=0;sketch=0;orthogonalLoop=1;jettySize=auto;html=1;endArrow=none;endFill=0;exitX=0;exitY=0;exitDx=0;exitDy=0;" parent="1" source="fxee2EC096Nbxwn1T24N-119" target="fxee2EC096Nbxwn1T24N-123" edge="1">
          <mxGeometry relative="1" as="geometry" />
        </mxCell>
        <mxCell id="fxee2EC096Nbxwn1T24N-126" value="" style="edgeStyle=orthogonalEdgeStyle;rounded=0;sketch=0;orthogonalLoop=1;jettySize=auto;html=1;endArrow=none;endFill=0;exitX=0.5;exitY=0;exitDx=0;exitDy=0;" parent="1" source="fxee2EC096Nbxwn1T24N-119" target="fxee2EC096Nbxwn1T24N-125" edge="1">
          <mxGeometry relative="1" as="geometry" />
        </mxCell>
        <mxCell id="fxee2EC096Nbxwn1T24N-128" value="" style="edgeStyle=orthogonalEdgeStyle;rounded=0;sketch=0;orthogonalLoop=1;jettySize=auto;html=1;endArrow=none;endFill=0;exitX=1;exitY=0;exitDx=0;exitDy=0;" parent="1" source="fxee2EC096Nbxwn1T24N-119" target="fxee2EC096Nbxwn1T24N-127" edge="1">
          <mxGeometry relative="1" as="geometry">
            <Array as="points">
              <mxPoint x="-110" y="-84" />
            </Array>
          </mxGeometry>
        </mxCell>
        <mxCell id="fxee2EC096Nbxwn1T24N-119" value="&lt;div&gt;address&lt;/div&gt;" style="ellipse;whiteSpace=wrap;html=1;align=center;" parent="1" vertex="1">
          <mxGeometry x="-310" y="-90" width="100" height="40" as="geometry" />
        </mxCell>
        <mxCell id="fxee2EC096Nbxwn1T24N-123" value="street" style="ellipse;whiteSpace=wrap;html=1;" parent="1" vertex="1">
          <mxGeometry x="-320" y="-200" width="90" height="40" as="geometry" />
        </mxCell>
        <mxCell id="fxee2EC096Nbxwn1T24N-125" value="city" style="ellipse;whiteSpace=wrap;html=1;" parent="1" vertex="1">
          <mxGeometry x="-220" y="-200" width="90" height="40" as="geometry" />
        </mxCell>
        <mxCell id="fxee2EC096Nbxwn1T24N-127" value="postalCode" style="ellipse;whiteSpace=wrap;html=1;" parent="1" vertex="1">
          <mxGeometry x="-120" y="-200" width="90" height="40" as="geometry" />
        </mxCell>
        <mxCell id="fxee2EC096Nbxwn1T24N-129" value="login" style="ellipse;whiteSpace=wrap;html=1;align=center;fontStyle=4;" parent="1" vertex="1">
          <mxGeometry x="-30" y="-50" width="80" height="40" as="geometry" />
        </mxCell>
        <mxCell id="fxee2EC096Nbxwn1T24N-132" value="password" style="ellipse;whiteSpace=wrap;html=1;" parent="1" vertex="1">
          <mxGeometry x="50" y="30" width="80" height="40" as="geometry" />
        </mxCell>
        <mxCell id="fxee2EC096Nbxwn1T24N-134" value="workPosition" style="ellipse;whiteSpace=wrap;html=1;" parent="1" vertex="1">
          <mxGeometry x="-330" y="180" width="100" height="40" as="geometry" />
        </mxCell>
        <mxCell id="fxee2EC096Nbxwn1T24N-137" style="edgeStyle=orthogonalEdgeStyle;rounded=0;sketch=0;orthogonalLoop=1;jettySize=auto;html=1;entryX=1;entryY=0;entryDx=0;entryDy=0;endArrow=none;endFill=0;" parent="1" source="fxee2EC096Nbxwn1T24N-136" target="fxee2EC096Nbxwn1T24N-26" edge="1">
          <mxGeometry relative="1" as="geometry">
            <Array as="points">
              <mxPoint x="-190" y="260" />
              <mxPoint x="-310" y="260" />
            </Array>
          </mxGeometry>
        </mxCell>
        <mxCell id="fxee2EC096Nbxwn1T24N-136" value="phone" style="ellipse;whiteSpace=wrap;html=1;" parent="1" vertex="1">
          <mxGeometry x="-220" y="180" width="100" height="40" as="geometry" />
        </mxCell>
        <mxCell id="fxee2EC096Nbxwn1T24N-139" style="edgeStyle=orthogonalEdgeStyle;rounded=0;sketch=0;orthogonalLoop=1;jettySize=auto;html=1;entryX=1;entryY=0.25;entryDx=0;entryDy=0;endArrow=none;endFill=0;" parent="1" source="fxee2EC096Nbxwn1T24N-138" target="fxee2EC096Nbxwn1T24N-26" edge="1">
          <mxGeometry relative="1" as="geometry">
            <Array as="points">
              <mxPoint x="-60" y="240" />
              <mxPoint x="-140" y="240" />
              <mxPoint x="-140" y="290" />
            </Array>
          </mxGeometry>
        </mxCell>
        <mxCell id="fxee2EC096Nbxwn1T24N-138" value="idEmployee" style="ellipse;whiteSpace=wrap;html=1;align=center;fontStyle=4;" parent="1" vertex="1">
          <mxGeometry x="-110" y="180" width="100" height="40" as="geometry" />
        </mxCell>
        <mxCell id="fxee2EC096Nbxwn1T24N-143" style="edgeStyle=orthogonalEdgeStyle;rounded=0;sketch=0;orthogonalLoop=1;jettySize=auto;html=1;entryX=0.25;entryY=0;entryDx=0;entryDy=0;endArrow=none;endFill=0;" parent="1" source="fxee2EC096Nbxwn1T24N-142" target="fxee2EC096Nbxwn1T24N-27" edge="1">
          <mxGeometry relative="1" as="geometry" />
        </mxCell>
        <mxCell id="fxee2EC096Nbxwn1T24N-142" value="&lt;div&gt;idCustomer&lt;/div&gt;" style="ellipse;whiteSpace=wrap;html=1;align=center;fontStyle=4;" parent="1" vertex="1">
          <mxGeometry x="-640" y="180" width="100" height="40" as="geometry" />
        </mxCell>
        <mxCell id="fxee2EC096Nbxwn1T24N-145" style="edgeStyle=orthogonalEdgeStyle;rounded=0;sketch=0;orthogonalLoop=1;jettySize=auto;html=1;entryX=0;entryY=0;entryDx=0;entryDy=0;endArrow=none;endFill=0;" parent="1" source="fxee2EC096Nbxwn1T24N-144" target="fxee2EC096Nbxwn1T24N-27" edge="1">
          <mxGeometry relative="1" as="geometry">
            <Array as="points">
              <mxPoint x="-700" y="240" />
              <mxPoint x="-640" y="240" />
              <mxPoint x="-640" y="280" />
            </Array>
          </mxGeometry>
        </mxCell>
        <mxCell id="fxee2EC096Nbxwn1T24N-144" value="phone" style="ellipse;whiteSpace=wrap;html=1;" parent="1" vertex="1">
          <mxGeometry x="-750" y="180" width="100" height="40" as="geometry" />
        </mxCell>
        <mxCell id="fxee2EC096Nbxwn1T24N-147" style="edgeStyle=orthogonalEdgeStyle;rounded=0;sketch=0;orthogonalLoop=1;jettySize=auto;html=1;entryX=0.75;entryY=1;entryDx=0;entryDy=0;endArrow=none;endFill=0;" parent="1" source="fxee2EC096Nbxwn1T24N-146" target="fxee2EC096Nbxwn1T24N-26" edge="1">
          <mxGeometry relative="1" as="geometry" />
        </mxCell>
        <mxCell id="fxee2EC096Nbxwn1T24N-149" value="" style="edgeStyle=orthogonalEdgeStyle;rounded=0;sketch=0;orthogonalLoop=1;jettySize=auto;html=1;endArrow=none;endFill=0;" parent="1" source="fxee2EC096Nbxwn1T24N-146" target="fxee2EC096Nbxwn1T24N-148" edge="1">
          <mxGeometry relative="1" as="geometry" />
        </mxCell>
        <mxCell id="fxee2EC096Nbxwn1T24N-151" value="" style="edgeStyle=orthogonalEdgeStyle;rounded=0;sketch=0;orthogonalLoop=1;jettySize=auto;html=1;endArrow=none;endFill=0;" parent="1" source="fxee2EC096Nbxwn1T24N-146" target="fxee2EC096Nbxwn1T24N-150" edge="1">
          <mxGeometry relative="1" as="geometry" />
        </mxCell>
        <mxCell id="fxee2EC096Nbxwn1T24N-146" value="Has" style="rhombus;whiteSpace=wrap;html=1;" parent="1" vertex="1">
          <mxGeometry x="-260" y="360" width="80" height="80" as="geometry" />
        </mxCell>
        <mxCell id="fxee2EC096Nbxwn1T24N-148" value="Role" style="whiteSpace=wrap;html=1;" parent="1" vertex="1">
          <mxGeometry x="-280" y="620" width="120" height="40" as="geometry" />
        </mxCell>
        <mxCell id="fxee2EC096Nbxwn1T24N-150" value="Permission" style="shape=ext;margin=3;double=1;whiteSpace=wrap;html=1;align=center;" parent="1" vertex="1">
          <mxGeometry x="-60" y="500" width="110" height="40" as="geometry" />
        </mxCell>
        <mxCell id="fxee2EC096Nbxwn1T24N-152" value="" style="edgeStyle=orthogonalEdgeStyle;rounded=0;sketch=0;orthogonalLoop=1;jettySize=auto;html=1;endArrow=none;endFill=0;exitX=0;exitY=0;exitDx=0;exitDy=0;" parent="1" source="fxee2EC096Nbxwn1T24N-155" target="fxee2EC096Nbxwn1T24N-156" edge="1">
          <mxGeometry relative="1" as="geometry" />
        </mxCell>
        <mxCell id="fxee2EC096Nbxwn1T24N-153" value="" style="edgeStyle=orthogonalEdgeStyle;rounded=0;sketch=0;orthogonalLoop=1;jettySize=auto;html=1;endArrow=none;endFill=0;exitX=0.5;exitY=0;exitDx=0;exitDy=0;" parent="1" source="fxee2EC096Nbxwn1T24N-155" target="fxee2EC096Nbxwn1T24N-157" edge="1">
          <mxGeometry relative="1" as="geometry" />
        </mxCell>
        <mxCell id="fxee2EC096Nbxwn1T24N-154" value="" style="edgeStyle=orthogonalEdgeStyle;rounded=0;sketch=0;orthogonalLoop=1;jettySize=auto;html=1;endArrow=none;endFill=0;exitX=1;exitY=0;exitDx=0;exitDy=0;" parent="1" source="fxee2EC096Nbxwn1T24N-155" target="fxee2EC096Nbxwn1T24N-158" edge="1">
          <mxGeometry relative="1" as="geometry">
            <Array as="points">
              <mxPoint x="430" y="146" />
            </Array>
          </mxGeometry>
        </mxCell>
        <mxCell id="fxee2EC096Nbxwn1T24N-159" style="edgeStyle=orthogonalEdgeStyle;rounded=0;sketch=0;orthogonalLoop=1;jettySize=auto;html=1;entryX=0.75;entryY=0;entryDx=0;entryDy=0;endArrow=none;endFill=0;" parent="1" source="fxee2EC096Nbxwn1T24N-155" target="fxee2EC096Nbxwn1T24N-16" edge="1">
          <mxGeometry relative="1" as="geometry" />
        </mxCell>
        <mxCell id="fxee2EC096Nbxwn1T24N-155" value="&lt;div&gt;address&lt;/div&gt;" style="ellipse;whiteSpace=wrap;html=1;align=center;" parent="1" vertex="1">
          <mxGeometry x="230" y="140" width="100" height="40" as="geometry" />
        </mxCell>
        <mxCell id="fxee2EC096Nbxwn1T24N-156" value="street" style="ellipse;whiteSpace=wrap;html=1;" parent="1" vertex="1">
          <mxGeometry x="220" y="30" width="90" height="40" as="geometry" />
        </mxCell>
        <mxCell id="fxee2EC096Nbxwn1T24N-157" value="city" style="ellipse;whiteSpace=wrap;html=1;" parent="1" vertex="1">
          <mxGeometry x="320" y="30" width="90" height="40" as="geometry" />
        </mxCell>
        <mxCell id="fxee2EC096Nbxwn1T24N-158" value="postalCode" style="ellipse;whiteSpace=wrap;html=1;" parent="1" vertex="1">
          <mxGeometry x="420" y="30" width="90" height="40" as="geometry" />
        </mxCell>
        <mxCell id="fxee2EC096Nbxwn1T24N-161" style="edgeStyle=orthogonalEdgeStyle;rounded=0;sketch=0;orthogonalLoop=1;jettySize=auto;html=1;entryX=0.5;entryY=0;entryDx=0;entryDy=0;endArrow=none;endFill=0;" parent="1" source="fxee2EC096Nbxwn1T24N-160" target="fxee2EC096Nbxwn1T24N-16" edge="1">
          <mxGeometry relative="1" as="geometry" />
        </mxCell>
        <mxCell id="fxee2EC096Nbxwn1T24N-160" value="&lt;div&gt;idBranch&lt;/div&gt;" style="ellipse;whiteSpace=wrap;html=1;align=center;fontStyle=4;" parent="1" vertex="1">
          <mxGeometry x="120" y="140" width="100" height="40" as="geometry" />
        </mxCell>
        <mxCell id="fxee2EC096Nbxwn1T24N-163" style="edgeStyle=orthogonalEdgeStyle;rounded=0;sketch=0;orthogonalLoop=1;jettySize=auto;html=1;entryX=1;entryY=0;entryDx=0;entryDy=0;endArrow=none;endFill=0;" parent="1" source="fxee2EC096Nbxwn1T24N-162" target="fxee2EC096Nbxwn1T24N-16" edge="1">
          <mxGeometry relative="1" as="geometry">
            <Array as="points">
              <mxPoint x="300" y="200" />
              <mxPoint x="300" y="280" />
            </Array>
          </mxGeometry>
        </mxCell>
        <mxCell id="fxee2EC096Nbxwn1T24N-162" value="name" style="ellipse;whiteSpace=wrap;html=1;align=center;" parent="1" vertex="1">
          <mxGeometry x="340" y="180" width="100" height="40" as="geometry" />
        </mxCell>
        <mxCell id="WLDFdkbROoyTzkpZu12v-2" style="edgeStyle=orthogonalEdgeStyle;rounded=0;orthogonalLoop=1;jettySize=auto;html=1;entryX=0.25;entryY=1;entryDx=0;entryDy=0;endArrow=none;endFill=0;" edge="1" parent="1" source="WLDFdkbROoyTzkpZu12v-1" target="fxee2EC096Nbxwn1T24N-85">
          <mxGeometry relative="1" as="geometry" />
        </mxCell>
        <mxCell id="WLDFdkbROoyTzkpZu12v-1" value="idNumber" style="ellipse;whiteSpace=wrap;html=1;align=center;fontStyle=4;" vertex="1" parent="1">
          <mxGeometry x="-1450" y="490" width="70" height="30" as="geometry" />
        </mxCell>
        <mxCell id="WLDFdkbROoyTzkpZu12v-4" style="edgeStyle=orthogonalEdgeStyle;rounded=0;orthogonalLoop=1;jettySize=auto;html=1;entryX=0.5;entryY=1;entryDx=0;entryDy=0;endArrow=none;endFill=0;" edge="1" parent="1" source="WLDFdkbROoyTzkpZu12v-3" target="fxee2EC096Nbxwn1T24N-85">
          <mxGeometry relative="1" as="geometry">
            <Array as="points">
              <mxPoint x="-1290" y="490" />
              <mxPoint x="-1310" y="490" />
            </Array>
          </mxGeometry>
        </mxCell>
        <mxCell id="WLDFdkbROoyTzkpZu12v-3" value="accountFrom" style="ellipse;whiteSpace=wrap;html=1;align=center;direction=south;" vertex="1" parent="1">
          <mxGeometry x="-1350" y="520" width="90" height="35" as="geometry" />
        </mxCell>
        <mxCell id="WLDFdkbROoyTzkpZu12v-6" style="edgeStyle=orthogonalEdgeStyle;rounded=0;orthogonalLoop=1;jettySize=auto;html=1;entryX=0.75;entryY=1;entryDx=0;entryDy=0;endArrow=none;endFill=0;" edge="1" parent="1" source="WLDFdkbROoyTzkpZu12v-5" target="fxee2EC096Nbxwn1T24N-85">
          <mxGeometry relative="1" as="geometry">
            <Array as="points">
              <mxPoint x="-1205" y="500" />
              <mxPoint x="-1260" y="500" />
              <mxPoint x="-1260" y="460" />
            </Array>
          </mxGeometry>
        </mxCell>
        <mxCell id="WLDFdkbROoyTzkpZu12v-5" value="accountTo" style="ellipse;whiteSpace=wrap;html=1;align=center;direction=south;" vertex="1" parent="1">
          <mxGeometry x="-1250" y="520" width="90" height="35" as="geometry" />
        </mxCell>
        <mxCell id="WLDFdkbROoyTzkpZu12v-9" style="edgeStyle=orthogonalEdgeStyle;rounded=0;orthogonalLoop=1;jettySize=auto;html=1;endArrow=none;endFill=0;entryX=0.5;entryY=1;entryDx=0;entryDy=0;" edge="1" parent="1" source="WLDFdkbROoyTzkpZu12v-8" target="fxee2EC096Nbxwn1T24N-13">
          <mxGeometry relative="1" as="geometry">
            <mxPoint x="-1160" y="350" as="targetPoint" />
          </mxGeometry>
        </mxCell>
        <mxCell id="WLDFdkbROoyTzkpZu12v-8" value="idNumber" style="ellipse;whiteSpace=wrap;html=1;align=center;fontStyle=4;" vertex="1" parent="1">
          <mxGeometry x="-1165" y="390" width="70" height="30" as="geometry" />
        </mxCell>
        <mxCell id="WLDFdkbROoyTzkpZu12v-13" style="edgeStyle=orthogonalEdgeStyle;rounded=0;orthogonalLoop=1;jettySize=auto;html=1;entryX=0.75;entryY=1;entryDx=0;entryDy=0;endArrow=none;endFill=0;" edge="1" parent="1" source="WLDFdkbROoyTzkpZu12v-12" target="fxee2EC096Nbxwn1T24N-13">
          <mxGeometry relative="1" as="geometry" />
        </mxCell>
        <mxCell id="WLDFdkbROoyTzkpZu12v-12" value="currency" style="ellipse;whiteSpace=wrap;html=1;align=center;direction=south;" vertex="1" parent="1">
          <mxGeometry x="-1080" y="390" width="90" height="35" as="geometry" />
        </mxCell>
        <mxCell id="WLDFdkbROoyTzkpZu12v-14" value="idNumber" style="ellipse;whiteSpace=wrap;html=1;align=center;fontStyle=4;" vertex="1" parent="1">
          <mxGeometry x="-530" y="590" width="70" height="30" as="geometry" />
        </mxCell>
        <mxCell id="WLDFdkbROoyTzkpZu12v-17" style="edgeStyle=orthogonalEdgeStyle;rounded=0;orthogonalLoop=1;jettySize=auto;html=1;entryX=0.75;entryY=1;entryDx=0;entryDy=0;endArrow=none;endFill=0;" edge="1" parent="1" source="WLDFdkbROoyTzkpZu12v-16" target="fxee2EC096Nbxwn1T24N-17">
          <mxGeometry relative="1" as="geometry" />
        </mxCell>
        <mxCell id="WLDFdkbROoyTzkpZu12v-16" value="issue" style="ellipse;whiteSpace=wrap;html=1;" vertex="1" parent="1">
          <mxGeometry x="-450" y="587.5" width="80" height="35" as="geometry" />
        </mxCell>
        <mxCell id="WLDFdkbROoyTzkpZu12v-19" style="edgeStyle=orthogonalEdgeStyle;rounded=0;orthogonalLoop=1;jettySize=auto;html=1;entryX=1;entryY=0.5;entryDx=0;entryDy=0;endArrow=none;endFill=0;" edge="1" parent="1" source="WLDFdkbROoyTzkpZu12v-18" target="fxee2EC096Nbxwn1T24N-17">
          <mxGeometry relative="1" as="geometry">
            <Array as="points">
              <mxPoint x="-330" y="540" />
              <mxPoint x="-390" y="540" />
            </Array>
          </mxGeometry>
        </mxCell>
        <mxCell id="WLDFdkbROoyTzkpZu12v-18" value="date" style="ellipse;whiteSpace=wrap;html=1;" vertex="1" parent="1">
          <mxGeometry x="-370" y="550" width="80" height="35" as="geometry" />
        </mxCell>
        <mxCell id="WLDFdkbROoyTzkpZu12v-25" style="edgeStyle=orthogonalEdgeStyle;rounded=0;orthogonalLoop=1;jettySize=auto;html=1;entryX=0.25;entryY=1;entryDx=0;entryDy=0;endArrow=none;endFill=0;" edge="1" parent="1" source="WLDFdkbROoyTzkpZu12v-24" target="fxee2EC096Nbxwn1T24N-14">
          <mxGeometry relative="1" as="geometry" />
        </mxCell>
        <mxCell id="WLDFdkbROoyTzkpZu12v-24" value="code" style="ellipse;whiteSpace=wrap;html=1;align=center;fontStyle=4;" vertex="1" parent="1">
          <mxGeometry x="260" y="485" width="100" height="40" as="geometry" />
        </mxCell>
        <mxCell id="WLDFdkbROoyTzkpZu12v-27" style="edgeStyle=orthogonalEdgeStyle;rounded=0;orthogonalLoop=1;jettySize=auto;html=1;entryX=0.5;entryY=1;entryDx=0;entryDy=0;endArrow=none;endFill=0;" edge="1" parent="1" source="WLDFdkbROoyTzkpZu12v-26" target="fxee2EC096Nbxwn1T24N-14">
          <mxGeometry relative="1" as="geometry" />
        </mxCell>
        <mxCell id="WLDFdkbROoyTzkpZu12v-26" value="name" style="ellipse;whiteSpace=wrap;html=1;align=center;" vertex="1" parent="1">
          <mxGeometry x="380" y="485" width="100" height="40" as="geometry" />
        </mxCell>
        <mxCell id="WLDFdkbROoyTzkpZu12v-31" style="edgeStyle=orthogonalEdgeStyle;rounded=0;orthogonalLoop=1;jettySize=auto;html=1;entryX=0.75;entryY=0;entryDx=0;entryDy=0;endArrow=none;endFill=0;" edge="1" parent="1" source="WLDFdkbROoyTzkpZu12v-28" target="fxee2EC096Nbxwn1T24N-150">
          <mxGeometry relative="1" as="geometry" />
        </mxCell>
        <mxCell id="WLDFdkbROoyTzkpZu12v-28" value="&lt;div&gt;idPermission&lt;/div&gt;" style="ellipse;whiteSpace=wrap;html=1;align=center;fontStyle=4;" vertex="1" parent="1">
          <mxGeometry x="80" y="447.5" width="100" height="40" as="geometry" />
        </mxCell>
        <mxCell id="WLDFdkbROoyTzkpZu12v-32" style="edgeStyle=orthogonalEdgeStyle;rounded=0;orthogonalLoop=1;jettySize=auto;html=1;exitX=0;exitY=0.5;exitDx=0;exitDy=0;entryX=1;entryY=0.5;entryDx=0;entryDy=0;endArrow=none;endFill=0;" edge="1" parent="1" source="WLDFdkbROoyTzkpZu12v-29" target="fxee2EC096Nbxwn1T24N-150">
          <mxGeometry relative="1" as="geometry" />
        </mxCell>
        <mxCell id="WLDFdkbROoyTzkpZu12v-29" value="name" style="ellipse;whiteSpace=wrap;html=1;align=center;" vertex="1" parent="1">
          <mxGeometry x="80" y="502.5" width="100" height="40" as="geometry" />
        </mxCell>
        <mxCell id="WLDFdkbROoyTzkpZu12v-33" style="edgeStyle=orthogonalEdgeStyle;rounded=0;orthogonalLoop=1;jettySize=auto;html=1;entryX=0.75;entryY=1;entryDx=0;entryDy=0;endArrow=none;endFill=0;" edge="1" parent="1" source="WLDFdkbROoyTzkpZu12v-30" target="fxee2EC096Nbxwn1T24N-150">
          <mxGeometry relative="1" as="geometry" />
        </mxCell>
        <mxCell id="WLDFdkbROoyTzkpZu12v-30" value="module" style="ellipse;whiteSpace=wrap;html=1;align=center;" vertex="1" parent="1">
          <mxGeometry x="80" y="567.5" width="100" height="45" as="geometry" />
        </mxCell>
        <mxCell id="WLDFdkbROoyTzkpZu12v-37" style="edgeStyle=orthogonalEdgeStyle;rounded=0;orthogonalLoop=1;jettySize=auto;html=1;entryX=0.25;entryY=1;entryDx=0;entryDy=0;endArrow=none;endFill=0;" edge="1" parent="1" source="WLDFdkbROoyTzkpZu12v-34" target="fxee2EC096Nbxwn1T24N-148">
          <mxGeometry relative="1" as="geometry" />
        </mxCell>
        <mxCell id="WLDFdkbROoyTzkpZu12v-34" value="&lt;div&gt;idRole&lt;/div&gt;" style="ellipse;whiteSpace=wrap;html=1;align=center;fontStyle=4;" vertex="1" parent="1">
          <mxGeometry x="-370" y="730" width="100" height="40" as="geometry" />
        </mxCell>
        <mxCell id="WLDFdkbROoyTzkpZu12v-38" style="edgeStyle=orthogonalEdgeStyle;rounded=0;orthogonalLoop=1;jettySize=auto;html=1;entryX=0.5;entryY=1;entryDx=0;entryDy=0;endArrow=none;endFill=0;" edge="1" parent="1" source="WLDFdkbROoyTzkpZu12v-35" target="fxee2EC096Nbxwn1T24N-148">
          <mxGeometry relative="1" as="geometry" />
        </mxCell>
        <mxCell id="WLDFdkbROoyTzkpZu12v-35" value="name" style="ellipse;whiteSpace=wrap;html=1;align=center;" vertex="1" parent="1">
          <mxGeometry x="-260" y="730" width="100" height="40" as="geometry" />
        </mxCell>
        <mxCell id="WLDFdkbROoyTzkpZu12v-39" style="edgeStyle=orthogonalEdgeStyle;rounded=0;orthogonalLoop=1;jettySize=auto;html=1;entryX=0.75;entryY=1;entryDx=0;entryDy=0;endArrow=none;endFill=0;" edge="1" parent="1" source="WLDFdkbROoyTzkpZu12v-36" target="fxee2EC096Nbxwn1T24N-148">
          <mxGeometry relative="1" as="geometry">
            <Array as="points">
              <mxPoint x="-100" y="700" />
              <mxPoint x="-170" y="700" />
              <mxPoint x="-170" y="660" />
            </Array>
          </mxGeometry>
        </mxCell>
        <mxCell id="WLDFdkbROoyTzkpZu12v-36" value="description" style="ellipse;whiteSpace=wrap;html=1;align=center;" vertex="1" parent="1">
          <mxGeometry x="-150" y="730" width="100" height="40" as="geometry" />
        </mxCell>
      </root>
    </mxGraphModel>
  </diagram>
</mxfile>
